# xmcd
#
# Track frame offsets:
#	150
#	19984
#	38001
#	57142
#	75234
#	94617
#	111043
#	130349
#	152402
#	167477
#	186583
#	204457
#	227889
#	248048
#	265888
#
# Disc length: 3945 seconds
#
# Revision: 1
# Processed by: cddbd v1.5.2PL0 Copyright (c) Steve Scherf et al.
# Submitted via: audiograbber 1.83.01
#
DISCID=b90f670f
DTITLE=Sound Choice - Country Hits - Vol. 160 SC8816
DYEAR=1900
DGENRE=Karaoke
TTITLE0=Travis Tritt - Country Ain't Country
TTITLE1=Toby Keith - Rock You Baby
TTITLE2=LeAnn Rimes - Suddenly
TTITLE3=Johnny Cash - Hurt
TTITLE4=Kenny Chesney - Big Star
TTITLE5=Phil Vassar - This Is God
TTITLE6=Jo Dee Messina - Was That My Life
TTITLE7=Mark Wills - When You Think Of Me
TTITLE8=Rascal Flatts - Love You Out Loud
TTITLE9=Steve Holy - Rock A Bye Heart
TTITLE10=Jimmy Wayne - Stay Gone
TTITLE11=Kid Rock and Sheryl Crow - Picture
TTITLE12=Jeff Bates - The Love Song
TTITLE13=Kellie Coffey - Whatever It Takes
TTITLE14=Steve Wariner - Snowfall On The Sand
EXTD=
EXTT0=
EXTT1=
EXTT2=
EXTT3=
EXTT4=
EXTT5=
EXTT6=
EXTT7=
EXTT8=
EXTT9=
EXTT10=
EXTT11=
EXTT12=
EXTT13=
EXTT14=
PLAYORDER=
